Run_40001
nRows=4
nColumns=164

# SIMM Motion File Header:
name Run_40001
datacolumns 164
datarows 4
otherdata 1
range 4.35000000 4.37500000
endheader
time	pelvis_tilt	pelvis_list	pelvis_rotation	pelvis_tx	pelvis_ty	pelvis_tz	hip_flexion_r	hip_adduction_r	hip_rotation_r	knee_angle_r	ankle_angle_r	hip_flexion_l	hip_adduction_l	hip_rotation_l	knee_angle_l	ankle_angle_l	lumbar_extension	lumbar_bending	lumbar_rotation	arm_flex_r	arm_add_r	arm_rot_r	elbow_flex_r	pro_sup_r	arm_flex_l	arm_add_l	arm_rot_l	elbow_flex_l	pro_sup_l	subtalar_angle_r	mtp_angle_r	subtalar_angle_l	mtp_angle_l	wrist_flex_r	wrist_dev_r	wrist_flex_l	wrist_dev_l	LASI_tx	LASI_ty	LASI_tz	RASI_tx	RASI_ty	RASI_tz	LPSI_tx	LPSI_ty	LPSI_tz	RPSI_tx	RPSI_ty	RPSI_tz	RTH1_tx	RTH1_ty	RTH1_tz	RTH2_tx	RTH2_ty	RTH2_tz	RTH3_tx	RTH3_ty	RTH3_tz	LTH1_tx	LTH1_ty	LTH1_tz	LTH2_tx	LTH2_ty	LTH2_tz	LTH3_tx	LTH3_ty	LTH3_tz	RTB1_tx	RTB1_ty	RTB1_tz	RTB2_tx	RTB2_ty	RTB2_tz	RTB3_tx	RTB3_ty	RTB3_tz	LTB1_tx	LTB1_ty	LTB1_tz	LTB2_tx	LTB2_ty	LTB2_tz	LTB3_tx	LTB3_ty	LTB3_tz	RCAL_tx	RCAL_ty	RCAL_tz	RTOE_tx	RTOE_ty	RTOE_tz	RMT5_tx	RMT5_ty	RMT5_tz	LCAL_tx	LCAL_ty	LCAL_tz	LTOE_tx	LTOE_ty	LTOE_tz	LMT5_tx	LMT5_ty	LMT5_tz	LACR_tx	LACR_ty	LACR_tz	RACR_tx	RACR_ty	RACR_tz	CLAV_tx	CLAV_ty	CLAV_tz	C7_tx	C7_ty	C7_tz	RUA1_tx	RUA1_ty	RUA1_tz	RUA2_tx	RUA2_ty	RUA2_tz	RUA3_tx	RUA3_ty	RUA3_tz	RLEL_tx	RLEL_ty	RLEL_tz	RMEL_tx	RMEL_ty	RMEL_tz	LUA1_tx	LUA1_ty	LUA1_tz	LUA2_tx	LUA2_ty	LUA2_tz	LUA3_tx	LUA3_ty	LUA3_tz	LLEL_tx	LLEL_ty	LLEL_tz	LMEL_tx	LMEL_ty	LMEL_tz	RFAsuperior_tx	RFAsuperior_ty	RFAsuperior_tz	RFAradius_tx	RFAradius_ty	RFAradius_tz	RFAulna_tx	RFAulna_ty	RFAulna_tz	LFAsuperior_tx	LFAsuperior_ty	LFAsuperior_tz	LFAradius_tx	LFAradius_ty	LFAradius_tz	LFAulna_tx	LFAulna_ty	LFAulna_tz
      4.35000000	      0.63190297	      4.46067138	      5.34122595	      0.71830190	      0.94360871	     -0.38346974	     -6.26754034	     -5.19976409	     -6.05954653	   -106.38830076	     -8.69014467	     27.42731119	     10.32024595	     -0.39234878	    -42.18420458	     11.20756295	    -15.43185343	     -5.68159235	     -0.46344714	    -12.73768062	    -27.49586522	     15.25867773	    116.76255754	     77.52090179	    -35.94317487	    -40.98461235	    -27.17791359	    138.37269919	     78.17934347	      0.00000000	      0.00000000	      0.00000000	      0.00000000	      0.00000000	      0.00000000	      0.00000000	      0.00000000	      0.71899458	      0.97317566	     -0.50188476	      0.73669838	      0.95949793	     -0.25689652	      0.55088253	      0.98227183	     -0.40537147	      0.56046615	      0.98400015	     -0.31925758	      0.67724486	      0.77135550	     -0.21820967	      0.71240618	      0.64690601	     -0.23688879	      0.61706839	      0.54067895	     -0.22525136	      0.70642082	      0.83343030	     -0.54920768	      0.80377511	      0.75078621	     -0.53317917	      0.79474606	      0.59942169	     -0.52745640	      0.48039914	      0.44226968	     -0.28157160	      0.42727688	      0.50396420	     -0.23392256	      0.31558699	      0.51793202	     -0.29952236	      0.86504872	      0.37444651	     -0.43798612	      0.80304599	      0.27482571	     -0.48179045	      0.80074971	      0.19764276	     -0.40242455	      0.24591398	      0.65719339	     -0.32836222	      0.12250387	      0.47894475	     -0.28894917	      0.12369496	      0.53745679	     -0.21228778	      0.65875897	      0.10270037	     -0.39768944	      0.87585470	      0.07548901	     -0.39228639	      0.84617065	      0.06072193	     -0.48034689	      0.68462586	      1.41895066	     -0.57058042	      0.73766872	      1.41741361	     -0.19942699	      0.80227039	      1.37308443	     -0.37641924	      0.67326846	      1.46588494	     -0.38476027	      0.71477689	      1.31142038	     -0.13274865	      0.72720335	      1.24027219	     -0.13385514	      0.63975789	      1.24003122	     -0.07385599	      0.66686463	      1.15338187	     -0.04847668	      0.59359508	      1.13683391	     -0.09999759	      0.63405591	      1.37608449	     -0.62886232	      0.55851132	      1.32717390	     -0.61785465	      0.58863086	      1.31245961	     -0.68602876	      0.52874789	      1.23818549	     -0.74597120	      0.49562334	      1.17709584	     -0.68494635	      0.73527633	      1.13284062	     -0.09444482	      0.83279819	      1.10741074	     -0.22992397	      0.81172749	      1.04675872	     -0.20617170	      0.60079499	      1.23848641	     -0.74747499	      0.75656469	      1.21715299	     -0.66379111	      0.74967692	      1.15966547	     -0.70050287
      4.35833300	      0.00750447	      5.27356892	      5.91918755	      0.71548659	      0.93930440	     -0.38353676	     -2.46628249	     -6.73295000	     -6.14561942	   -111.21434337	     -7.88686084	     27.29475807	     11.20357317	     -0.53581173	    -44.70185972	     13.43659445	    -15.24541313	     -6.52056233	     -0.96327627	    -15.37338773	    -26.28176918	     12.70468808	    114.15634895	     78.72493522	    -30.49801359	    -42.27942052	    -24.30107971	    137.00452859	     79.29568457	      0.00000000	      0.00000000	      0.00000000	      0.00000000	      0.00000000	      0.00000000	      0.00000000	      0.00000000	      0.71675762	      0.96952445	     -0.50299323	      0.73471559	      0.95386543	     -0.25625536	      0.54867741	      0.98072944	     -0.40241779	      0.55821999	      0.98071746	     -0.31691461	      0.68162850	      0.76688623	     -0.21793162	      0.72271828	      0.64473771	     -0.23543989	      0.63411498	      0.53505216	     -0.22203696	      0.70090935	      0.83238424	     -0.55002683	      0.79723712	      0.74649905	     -0.53437207	      0.78650980	      0.59604945	     -0.52903567	      0.50195649	      0.43898463	     -0.27936870	      0.45001996	      0.50159301	     -0.23165345	      0.33855033	      0.51801011	     -0.29640502	      0.84776790	      0.37070764	     -0.43884367	      0.78142152	      0.27343377	     -0.48245412	      0.77506537	      0.19652031	     -0.40315034	      0.27213559	      0.65956172	     -0.32647618	      0.14614920	      0.48310997	     -0.28642605	      0.14932696	      0.54137329	     -0.20952283	      0.62708396	      0.10398500	     -0.39757641	      0.84353328	      0.07441853	     -0.39274030	      0.81338856	      0.06047678	     -0.48042843	      0.68563710	      1.41335611	     -0.57198703	      0.73611105	      1.41316149	     -0.19905869	      0.80448204	      1.36705012	     -0.37458648	      0.67393900	      1.46213749	     -0.38623304	      0.70946385	      1.30772232	     -0.13285854	      0.71805447	      1.23607572	     -0.13478072	      0.63070965	      1.23878671	     -0.07596627	      0.65540609	      1.15138954	     -0.04818796	      0.58417209	      1.13587003	     -0.10177335	      0.63626852	      1.36598659	     -0.63060104	      0.56258336	      1.31336629	     -0.62117937	      0.59550640	      1.30056617	     -0.68882834	      0.54107404	      1.22406285	     -0.74947027	      0.50952658	      1.16121857	     -0.68988055	      0.72415696	      1.12589367	     -0.09103815	      0.82554663	      1.08961780	     -0.22141843	      0.80058652	      1.03076838	     -0.19542103	      0.61334424	      1.22711576	     -0.74818566	      0.76721093	      1.21125294	     -0.66189566	      0.76430663	      1.15415413	     -0.69950960
      4.36666700	     -0.62850309	      5.90413720	      6.25831609	      0.71282205	      0.93647753	     -0.38287877	      1.71238161	     -7.96655494	     -5.76246904	   -115.39877269	     -7.41003522	     26.40399188	     11.73887261	     -0.62074772	    -45.91577878	     15.34670665	    -14.96689062	     -7.25870635	     -1.22959089	    -17.80870510	    -24.89167595	     10.22896550	    111.30088115	     79.92483870	    -24.61083705	    -43.07961552	    -20.94269586	    135.24113837	     81.11815562	      0.00000000	      0.00000000	      0.00000000	      0.00000000	      0.00000000	      0.00000000	      0.00000000	      0.00000000	      0.71472741	      0.96768773	     -0.50397771	      0.73237579	      0.95078351	     -0.25447836	      0.54706222	      0.98142572	     -0.40024466	      0.55626626	      0.98034728	     -0.31462967	      0.68574335	      0.76377238	     -0.21735636	      0.73381138	      0.64409516	     -0.23409312	      0.65258616	      0.53137401	     -0.21914828	      0.69601015	      0.83169746	     -0.55058638	      0.78944534	      0.74170555	     -0.53513320	      0.77366558	      0.59143326	     -0.52948311	      0.52526966	      0.43589890	     -0.27763009	      0.47425729	      0.49861886	     -0.22930010	      0.36276875	      0.51630559	     -0.29341751	      0.82783432	      0.36556570	     -0.44005111	      0.75738949	      0.27026841	     -0.48279128	      0.74751052	      0.19408038	     -0.40384349	      0.29763117	      0.65988092	     -0.32301222	      0.17088605	      0.48324818	     -0.28548518	      0.17517966	      0.54000938	     -0.20739685	      0.59464456	      0.10494015	     -0.39775023	      0.81063219	      0.07294748	     -0.39335909	      0.78015136	      0.05973095	     -0.48077761	      0.68653196	      1.40854470	     -0.57318863	      0.73425543	      1.41008876	     -0.19861106	      0.80625524	      1.36240707	     -0.37220088	      0.67501434	      1.45993772	     -0.38754324	      0.70426267	      1.30541772	     -0.13289551	      0.70928872	      1.23354122	     -0.13581901	      0.62152205	      1.23873160	     -0.07878741	      0.64388642	      1.15086413	     -0.04841253	      0.57467995	      1.13608326	     -0.10408754	      0.63842144	      1.35708119	     -0.63182872	      0.56744868	      1.29966551	     -0.62292948	      0.60279297	      1.28968202	     -0.69057959	      0.55487420	      1.21073756	     -0.75200158	      0.52474076	      1.14626680	     -0.69415787	      0.71267170	      1.12063441	     -0.08843372	      0.81703556	      1.07309356	     -0.21234673	      0.78814613	      1.01655453	     -0.18439712	      0.62712627	      1.21642935	     -0.74766972	      0.77865667	      1.20554680	     -0.65907229	      0.77952908	      1.14934559	     -0.69771413
      4.37500000	     -1.03883429	      6.29628243	      6.40991965	      0.71037962	      0.93516607	     -0.38193637	      5.92569157	     -8.82470313	     -5.10145095	   -118.81738973	     -7.11423508	     24.60864882	     11.94698770	     -0.52742934	    -46.05470576	     17.26562698	    -14.85802911	     -7.76341260	     -1.48273496	    -19.87867081	    -23.61121521	      8.07835535	    108.48985165	     80.58363795	    -18.80813904	    -43.23453611	    -17.63252910	    133.35963834	     83.45633311	      0.00000000	      0.00000000	      0.00000000	      0.00000000	      0.00000000	      0.00000000	      0.00000000	      0.00000000	      0.71293647	      0.96731923	     -0.50485246	      0.72983883	      0.95032275	     -0.25231470	      0.54556270	      0.98318379	     -0.39923668	      0.55425512	      0.98166613	     -0.31301352	      0.68966984	      0.76213697	     -0.21650861	      0.74577369	      0.64519753	     -0.23295901	      0.67219917	      0.52982104	     -0.21672609	      0.69157652	      0.83109766	     -0.55085823	      0.78036463	      0.73647812	     -0.53556925	      0.75716537	      0.58615649	     -0.52912011	      0.55000901	      0.43326443	     -0.27609751	      0.49971230	      0.49558620	     -0.22680284	      0.38780208	      0.51313101	     -0.29072981	      0.80536254	      0.35874601	     -0.44108718	      0.73080500	      0.26561245	     -0.48266989	      0.71783665	      0.19068670	     -0.40402679	      0.32146003	      0.65833621	     -0.31836105	      0.19630726	      0.47938321	     -0.28585739	      0.20079477	      0.53361029	     -0.20591095	      0.56135222	      0.10558579	     -0.39811582	      0.77696907	      0.07174610	     -0.39391549	      0.74634191	      0.05902172	     -0.48131187	      0.68773673	      1.40456947	     -0.57408547	      0.73198925	      1.40835731	     -0.19818104	      0.80720823	      1.35969308	     -0.36976838	      0.67610967	      1.45884716	     -0.38861333	      0.69893307	      1.30461344	     -0.13275754	      0.70115157	      1.23268266	     -0.13654173	      0.61229059	      1.23998881	     -0.08206790	      0.63238105	      1.15199215	     -0.04902469	      0.56508191	      1.13776368	     -0.10674277	      0.64110880	      1.34950125	     -0.63251474	      0.57367624	      1.28676006	     -0.62295617	      0.61050951	      1.28010422	     -0.69118545	      0.56977646	      1.19860644	     -0.75338174	      0.54091933	      1.13270347	     -0.69743343	      0.70102270	      1.11733149	     -0.08637795	      0.80743361	      1.05870402	     -0.20290417	      0.77446904	      1.00488498	     -0.17373376	      0.64180331	      1.20669318	     -0.74612999	      0.79089910	      1.20068723	     -0.65525608	      0.79510919	      1.14556035	     -0.69505704
